<svg width="100%" viewBox="0 0 700 420" role="img" xmlns="http://www.w3.org/2000/svg">
  <title>Player photo placeholder</title>
  <desc>Placeholder shown when a player photo is unavailable</desc>
  <defs>
    <pattern id="grid" x="0" y="0" width="40" height="40" patternUnits="userSpaceOnUse">
      <path d="M40 0L0 0L0 40" fill="none" stroke="#e8257a" stroke-width="0.3" opacity="0.2"/>
    </pattern>
    <pattern id="dots" x="0" y="0" width="20" height="20" patternUnits="userSpaceOnUse">
      <circle cx="10" cy="10" r="1" fill="#ffd600" opacity="0.15"/>
    </pattern>
    <clipPath id="card">
      <rect x="0" y="0" width="700" height="420"/>
    </clipPath>
  </defs>
  <rect x="0" y="0" width="700" height="420" fill="#0a1628"/>
  <rect x="0" y="0" width="700" height="420" fill="url(#grid)"/>
  <rect x="0" y="0" width="700" height="420" fill="url(#dots)"/>
  <ellipse cx="350" cy="520" rx="500" ry="280" fill="#1a3a8a" opacity="0.25"/>
  <ellipse cx="350" cy="480" rx="320" ry="180" fill="#e8257a" opacity="0.07"/>
  <rect x="324" y="340" width="52" height="12" rx="2" fill="#ffd600" opacity="0.6"/>
  <rect x="336" y="316" width="8" height="28" rx="2" fill="#ffd600" opacity="0.5"/>
  <rect x="356" y="316" width="8" height="28" rx="2" fill="#ffd600" opacity="0.5"/>
  <rect x="346" y="308" width="8" height="36" rx="2" fill="#ffd600" opacity="0.5"/>
  <g clip-path="url(#card)">
    <circle cx="350" cy="148" r="44" fill="#1e3a8a"/>
    <ellipse cx="350" cy="148" rx="28" ry="32" fill="#c8956a"/>
    <ellipse cx="350" cy="130" rx="22" ry="14" fill="#1e3a8a"/>
    <rect x="328" y="124" width="44" height="10" rx="2" fill="#1e3a8a"/>
    <ellipse cx="350" cy="118" rx="26" ry="8" fill="#1e3a8a"/>
    <rect x="294" y="192" width="112" height="116" rx="18" fill="#1e3a8a"/>
    <rect x="236" y="198" width="58" height="80" rx="16" fill="#1e3a8a"/>
    <ellipse cx="252" cy="198" rx="22" ry="14" fill="#c8956a"/>
    <rect x="230" y="184" width="44" height="20" rx="6" fill="#c8956a"/>
    <rect x="228" y="270" width="66" height="14" rx="6" fill="#e8257a" opacity="0.8"/>
    <rect x="406" y="198" width="58" height="80" rx="16" fill="#1e3a8a"/>
    <ellipse cx="448" cy="198" rx="22" ry="14" fill="#c8956a"/>
    <rect x="426" y="184" width="44" height="20" rx="6" fill="#c8956a"/>
    <rect x="406" y="270" width="66" height="14" rx="6" fill="#e8257a" opacity="0.8"/>
    <rect x="440" y="176" width="10" height="80" rx="4" fill="#c8956a" transform="rotate(18 445 216)"/>
    <ellipse cx="453" cy="170" rx="8" ry="12" fill="#a07040" transform="rotate(18 445 216)"/>
    <rect x="306" y="308" width="38" height="90" rx="12" fill="#1e3a8a"/>
    <rect x="356" y="308" width="38" height="90" rx="12" fill="#1e3a8a"/>
    <rect x="308" y="308" width="34" height="54" rx="8" fill="#c8956a"/>
    <rect x="358" y="308" width="34" height="54" rx="8" fill="#c8956a"/>
    <rect x="302" y="390" width="48" height="14" rx="7" fill="#e8257a" opacity="0.85"/>
    <rect x="350" y="390" width="48" height="14" rx="7" fill="#e8257a" opacity="0.85"/>
  </g>
  <rect x="0" y="380" width="700" height="40" fill="#0a1628" opacity="0.7"/>
  <text x="350" y="406" text-anchor="middle" font-family="'Barlow Condensed', 'Arial Narrow', sans-serif" font-size="13" font-weight="700" letter-spacing="8" fill="#ffd600" opacity="0.45">NO PHOTO AVAILABLE</text>
  <rect x="0" y="0" width="700" height="420" fill="none" stroke="#e8257a" stroke-width="2" opacity="0.3"/>
  <rect x="6" y="6" width="688" height="408" fill="none" stroke="#ffd600" stroke-width="0.5" opacity="0.15"/>
</svg>
